<?xml version="1.0" encoding="UTF-8" standalone="no"?>
<!DOCTYPE svg PUBLIC "-//W3C//DTD SVG 1.1//EN"
 "http://www.w3.org/Graphics/SVG/1.1/DTD/svg11.dtd">
<!-- Generated by graphviz version 2.42.3 (20191010.1750)
 -->
<!-- Title: snakemake_dag Pages: 1 -->
<svg width="615pt" height="353pt"
 viewBox="0.00 0.00 614.50 353.00" xmlns="http://www.w3.org/2000/svg" xmlns:xlink="http://www.w3.org/1999/xlink">
<g id="graph0" class="graph" transform="scale(1 1) rotate(0) translate(4 349)">
<title>snakemake_dag</title>
<polygon fill="white" stroke="transparent" points="-4,4 -4,-349 610.5,-349 610.5,4 -4,4"/>
<!-- 0 -->
<g id="node1" class="node">
<title>0</title>
<path fill="none" stroke="#56d8a9" stroke-width="2" stroke-dasharray="5,2" d="M287,-36C287,-36 257,-36 257,-36 251,-36 245,-30 245,-24 245,-24 245,-12 245,-12 245,-6 251,0 257,0 257,0 287,0 287,0 293,0 299,-6 299,-12 299,-12 299,-24 299,-24 299,-30 293,-36 287,-36"/>
<text text-anchor="middle" x="272" y="-15.5" font-family="sans" font-size="10.00">all</text>
</g>
<!-- 1 -->
<g id="node2" class="node">
<title>1</title>
<path fill="none" stroke="#d85656" stroke-width="2" stroke-dasharray="5,2" d="M86,-113C86,-113 12,-113 12,-113 6,-113 0,-107 0,-101 0,-101 0,-84 0,-84 0,-78 6,-72 12,-72 12,-72 86,-72 86,-72 92,-72 98,-78 98,-84 98,-84 98,-101 98,-101 98,-107 92,-113 86,-113"/>
<text text-anchor="middle" x="49" y="-101" font-family="sans" font-size="10.00">write_summary</text>
<text text-anchor="middle" x="49" y="-90" font-family="sans" font-size="10.00">exp: test</text>
<text text-anchor="middle" x="49" y="-79" font-family="sans" font-size="10.00">outpath: test/out</text>
</g>
<!-- 1&#45;&gt;0 -->
<g id="edge1" class="edge">
<title>1&#45;&gt;0</title>
<path fill="none" stroke="grey" stroke-width="2" d="M98.03,-74.96C101.07,-73.96 104.07,-72.96 107,-72 150.91,-57.57 201.53,-41.37 235,-30.73"/>
<polygon fill="grey" stroke="grey" stroke-width="2" points="236.34,-33.97 244.81,-27.61 234.22,-27.3 236.34,-33.97"/>
</g>
<!-- 2 -->
<g id="node3" class="node">
<title>2</title>
<path fill="none" stroke="#d8ac56" stroke-width="2" stroke-dasharray="5,2" d="M196,-110.5C196,-110.5 128,-110.5 128,-110.5 122,-110.5 116,-104.5 116,-98.5 116,-98.5 116,-86.5 116,-86.5 116,-80.5 122,-74.5 128,-74.5 128,-74.5 196,-74.5 196,-74.5 202,-74.5 208,-80.5 208,-86.5 208,-86.5 208,-98.5 208,-98.5 208,-104.5 202,-110.5 196,-110.5"/>
<text text-anchor="middle" x="162" y="-90" font-family="sans" font-size="10.00">annotate_reads</text>
</g>
<!-- 2&#45;&gt;0 -->
<g id="edge2" class="edge">
<title>2&#45;&gt;0</title>
<path fill="none" stroke="grey" stroke-width="2" d="M188.07,-74.32C202.86,-64.57 221.56,-52.24 237.55,-41.7"/>
<polygon fill="grey" stroke="grey" stroke-width="2" points="239.7,-44.48 246.12,-36.06 235.84,-38.64 239.7,-44.48"/>
</g>
<!-- 3 -->
<g id="node4" class="node">
<title>3</title>
<path fill="none" stroke="#56a9d8" stroke-width="2" stroke-dasharray="5,2" d="M177,-185C177,-185 147,-185 147,-185 141,-185 135,-179 135,-173 135,-173 135,-161 135,-161 135,-155 141,-149 147,-149 147,-149 177,-149 177,-149 183,-149 189,-155 189,-161 189,-161 189,-173 189,-173 189,-179 183,-185 177,-185"/>
<text text-anchor="middle" x="162" y="-164.5" font-family="sans" font-size="10.00">convert</text>
</g>
<!-- 3&#45;&gt;2 -->
<g id="edge6" class="edge">
<title>3&#45;&gt;2</title>
<path fill="none" stroke="grey" stroke-width="2" d="M162,-148.82C162,-140.42 162,-130.12 162,-120.69"/>
<polygon fill="grey" stroke="grey" stroke-width="2" points="165.5,-120.56 162,-110.56 158.5,-120.56 165.5,-120.56"/>
</g>
<!-- 4 -->
<g id="node5" class="node">
<title>4</title>
<path fill="none" stroke="#59d856" stroke-width="2" stroke-dasharray="5,2" d="M177,-257C177,-257 147,-257 147,-257 141,-257 135,-251 135,-245 135,-245 135,-233 135,-233 135,-227 141,-221 147,-221 147,-221 177,-221 177,-221 183,-221 189,-227 189,-233 189,-233 189,-245 189,-245 189,-251 183,-257 177,-257"/>
<text text-anchor="middle" x="162" y="-236.5" font-family="sans" font-size="10.00">art</text>
</g>
<!-- 4&#45;&gt;3 -->
<g id="edge8" class="edge">
<title>4&#45;&gt;3</title>
<path fill="none" stroke="grey" stroke-width="2" d="M162,-220.7C162,-212.98 162,-203.71 162,-195.11"/>
<polygon fill="grey" stroke="grey" stroke-width="2" points="165.5,-195.1 162,-185.1 158.5,-195.1 165.5,-195.1"/>
</g>
<!-- 5 -->
<g id="node6" class="node">
<title>5</title>
<path fill="none" stroke="#afd856" stroke-width="2" stroke-dasharray="5,2" d="M164.5,-345C164.5,-345 65.5,-345 65.5,-345 59.5,-345 53.5,-339 53.5,-333 53.5,-333 53.5,-305 53.5,-305 53.5,-299 59.5,-293 65.5,-293 65.5,-293 164.5,-293 164.5,-293 170.5,-293 176.5,-299 176.5,-305 176.5,-305 176.5,-333 176.5,-333 176.5,-339 170.5,-345 164.5,-345"/>
<text text-anchor="middle" x="115" y="-333" font-family="sans" font-size="10.00">simulate_integrations</text>
<text text-anchor="middle" x="115" y="-322" font-family="sans" font-size="10.00">exp: test</text>
<text text-anchor="middle" x="115" y="-311" font-family="sans" font-size="10.00">outpath: test/out</text>
<text text-anchor="middle" x="115" y="-300" font-family="sans" font-size="10.00">samp: cond0.rep0</text>
</g>
<!-- 5&#45;&gt;2 -->
<g id="edge7" class="edge">
<title>5&#45;&gt;2</title>
<path fill="none" stroke="grey" stroke-width="2" d="M112.76,-292.91C110.62,-259.23 109.76,-197.98 126,-149 129.47,-138.53 135.4,-128.11 141.46,-119.18"/>
<polygon fill="grey" stroke="grey" stroke-width="2" points="144.49,-120.95 147.47,-110.78 138.8,-116.87 144.49,-120.95"/>
</g>
<!-- 5&#45;&gt;4 -->
<g id="edge9" class="edge">
<title>5&#45;&gt;4</title>
<path fill="none" stroke="grey" stroke-width="2" d="M130.13,-292.89C135.31,-284.3 141.11,-274.67 146.33,-266.01"/>
<polygon fill="grey" stroke="grey" stroke-width="2" points="149.35,-267.78 151.51,-257.41 143.35,-264.17 149.35,-267.78"/>
</g>
<!-- 6 -->
<g id="node7" class="node">
<title>6</title>
<path fill="none" stroke="#d8ac56" stroke-width="2" stroke-dasharray="5,2" d="M306,-110.5C306,-110.5 238,-110.5 238,-110.5 232,-110.5 226,-104.5 226,-98.5 226,-98.5 226,-86.5 226,-86.5 226,-80.5 232,-74.5 238,-74.5 238,-74.5 306,-74.5 306,-74.5 312,-74.5 318,-80.5 318,-86.5 318,-86.5 318,-98.5 318,-98.5 318,-104.5 312,-110.5 306,-110.5"/>
<text text-anchor="middle" x="272" y="-90" font-family="sans" font-size="10.00">annotate_reads</text>
</g>
<!-- 6&#45;&gt;0 -->
<g id="edge3" class="edge">
<title>6&#45;&gt;0</title>
<path fill="none" stroke="grey" stroke-width="2" d="M272,-74.32C272,-65.92 272,-55.62 272,-46.19"/>
<polygon fill="grey" stroke="grey" stroke-width="2" points="275.5,-46.06 272,-36.06 268.5,-46.06 275.5,-46.06"/>
</g>
<!-- 7 -->
<g id="node8" class="node">
<title>7</title>
<path fill="none" stroke="#56a9d8" stroke-width="2" stroke-dasharray="5,2" d="M306,-185C306,-185 276,-185 276,-185 270,-185 264,-179 264,-173 264,-173 264,-161 264,-161 264,-155 270,-149 276,-149 276,-149 306,-149 306,-149 312,-149 318,-155 318,-161 318,-161 318,-173 318,-173 318,-179 312,-185 306,-185"/>
<text text-anchor="middle" x="291" y="-164.5" font-family="sans" font-size="10.00">convert</text>
</g>
<!-- 7&#45;&gt;6 -->
<g id="edge10" class="edge">
<title>7&#45;&gt;6</title>
<path fill="none" stroke="grey" stroke-width="2" d="M286.5,-148.82C284.27,-140.33 281.54,-129.89 279.04,-120.38"/>
<polygon fill="grey" stroke="grey" stroke-width="2" points="282.39,-119.34 276.47,-110.56 275.62,-121.12 282.39,-119.34"/>
</g>
<!-- 8 -->
<g id="node9" class="node">
<title>8</title>
<path fill="none" stroke="#59d856" stroke-width="2" stroke-dasharray="5,2" d="M306,-257C306,-257 276,-257 276,-257 270,-257 264,-251 264,-245 264,-245 264,-233 264,-233 264,-227 270,-221 276,-221 276,-221 306,-221 306,-221 312,-221 318,-227 318,-233 318,-233 318,-245 318,-245 318,-251 312,-257 306,-257"/>
<text text-anchor="middle" x="291" y="-236.5" font-family="sans" font-size="10.00">art</text>
</g>
<!-- 8&#45;&gt;7 -->
<g id="edge12" class="edge">
<title>8&#45;&gt;7</title>
<path fill="none" stroke="grey" stroke-width="2" d="M291,-220.7C291,-212.98 291,-203.71 291,-195.11"/>
<polygon fill="grey" stroke="grey" stroke-width="2" points="294.5,-195.1 291,-185.1 287.5,-195.1 294.5,-195.1"/>
</g>
<!-- 9 -->
<g id="node10" class="node">
<title>9</title>
<path fill="none" stroke="#afd856" stroke-width="2" stroke-dasharray="5,2" d="M309.5,-345C309.5,-345 210.5,-345 210.5,-345 204.5,-345 198.5,-339 198.5,-333 198.5,-333 198.5,-305 198.5,-305 198.5,-299 204.5,-293 210.5,-293 210.5,-293 309.5,-293 309.5,-293 315.5,-293 321.5,-299 321.5,-305 321.5,-305 321.5,-333 321.5,-333 321.5,-339 315.5,-345 309.5,-345"/>
<text text-anchor="middle" x="260" y="-333" font-family="sans" font-size="10.00">simulate_integrations</text>
<text text-anchor="middle" x="260" y="-322" font-family="sans" font-size="10.00">exp: test</text>
<text text-anchor="middle" x="260" y="-311" font-family="sans" font-size="10.00">outpath: test/out</text>
<text text-anchor="middle" x="260" y="-300" font-family="sans" font-size="10.00">samp: cond1.rep0</text>
</g>
<!-- 9&#45;&gt;6 -->
<g id="edge11" class="edge">
<title>9&#45;&gt;6</title>
<path fill="none" stroke="grey" stroke-width="2" d="M256.5,-292.92C252.49,-259.78 247.42,-199.66 255,-149 256.43,-139.44 259.18,-129.26 262.05,-120.25"/>
<polygon fill="grey" stroke="grey" stroke-width="2" points="265.4,-121.28 265.28,-110.69 258.76,-119.04 265.4,-121.28"/>
</g>
<!-- 9&#45;&gt;8 -->
<g id="edge13" class="edge">
<title>9&#45;&gt;8</title>
<path fill="none" stroke="grey" stroke-width="2" d="M269.98,-292.89C273.29,-284.57 276.98,-275.28 280.34,-266.83"/>
<polygon fill="grey" stroke="grey" stroke-width="2" points="283.64,-268 284.08,-257.41 277.13,-265.41 283.64,-268"/>
</g>
<!-- 10 -->
<g id="node11" class="node">
<title>10</title>
<path fill="none" stroke="#d8ac56" stroke-width="2" stroke-dasharray="5,2" d="M416,-110.5C416,-110.5 348,-110.5 348,-110.5 342,-110.5 336,-104.5 336,-98.5 336,-98.5 336,-86.5 336,-86.5 336,-80.5 342,-74.5 348,-74.5 348,-74.5 416,-74.5 416,-74.5 422,-74.5 428,-80.5 428,-86.5 428,-86.5 428,-98.5 428,-98.5 428,-104.5 422,-110.5 416,-110.5"/>
<text text-anchor="middle" x="382" y="-90" font-family="sans" font-size="10.00">annotate_reads</text>
</g>
<!-- 10&#45;&gt;0 -->
<g id="edge4" class="edge">
<title>10&#45;&gt;0</title>
<path fill="none" stroke="grey" stroke-width="2" d="M355.93,-74.32C341.14,-64.57 322.44,-52.24 306.45,-41.7"/>
<polygon fill="grey" stroke="grey" stroke-width="2" points="308.16,-38.64 297.88,-36.06 304.3,-44.48 308.16,-38.64"/>
</g>
<!-- 11 -->
<g id="node12" class="node">
<title>11</title>
<path fill="none" stroke="#56a9d8" stroke-width="2" stroke-dasharray="5,2" d="M435,-185C435,-185 405,-185 405,-185 399,-185 393,-179 393,-173 393,-173 393,-161 393,-161 393,-155 399,-149 405,-149 405,-149 435,-149 435,-149 441,-149 447,-155 447,-161 447,-161 447,-173 447,-173 447,-179 441,-185 435,-185"/>
<text text-anchor="middle" x="420" y="-164.5" font-family="sans" font-size="10.00">convert</text>
</g>
<!-- 11&#45;&gt;10 -->
<g id="edge14" class="edge">
<title>11&#45;&gt;10</title>
<path fill="none" stroke="grey" stroke-width="2" d="M410.99,-148.82C406.4,-140.06 400.73,-129.23 395.61,-119.47"/>
<polygon fill="grey" stroke="grey" stroke-width="2" points="398.68,-117.79 390.94,-110.56 392.48,-121.04 398.68,-117.79"/>
</g>
<!-- 12 -->
<g id="node13" class="node">
<title>12</title>
<path fill="none" stroke="#59d856" stroke-width="2" stroke-dasharray="5,2" d="M435,-257C435,-257 405,-257 405,-257 399,-257 393,-251 393,-245 393,-245 393,-233 393,-233 393,-227 399,-221 405,-221 405,-221 435,-221 435,-221 441,-221 447,-227 447,-233 447,-233 447,-245 447,-245 447,-251 441,-257 435,-257"/>
<text text-anchor="middle" x="420" y="-236.5" font-family="sans" font-size="10.00">art</text>
</g>
<!-- 12&#45;&gt;11 -->
<g id="edge16" class="edge">
<title>12&#45;&gt;11</title>
<path fill="none" stroke="grey" stroke-width="2" d="M420,-220.7C420,-212.98 420,-203.71 420,-195.11"/>
<polygon fill="grey" stroke="grey" stroke-width="2" points="423.5,-195.1 420,-185.1 416.5,-195.1 423.5,-195.1"/>
</g>
<!-- 13 -->
<g id="node14" class="node">
<title>13</title>
<path fill="none" stroke="#afd856" stroke-width="2" stroke-dasharray="5,2" d="M452.5,-345C452.5,-345 353.5,-345 353.5,-345 347.5,-345 341.5,-339 341.5,-333 341.5,-333 341.5,-305 341.5,-305 341.5,-299 347.5,-293 353.5,-293 353.5,-293 452.5,-293 452.5,-293 458.5,-293 464.5,-299 464.5,-305 464.5,-305 464.5,-333 464.5,-333 464.5,-339 458.5,-345 452.5,-345"/>
<text text-anchor="middle" x="403" y="-333" font-family="sans" font-size="10.00">simulate_integrations</text>
<text text-anchor="middle" x="403" y="-322" font-family="sans" font-size="10.00">exp: test</text>
<text text-anchor="middle" x="403" y="-311" font-family="sans" font-size="10.00">outpath: test/out</text>
<text text-anchor="middle" x="403" y="-300" font-family="sans" font-size="10.00">samp: cond0.rep1</text>
</g>
<!-- 13&#45;&gt;10 -->
<g id="edge15" class="edge">
<title>13&#45;&gt;10</title>
<path fill="none" stroke="grey" stroke-width="2" d="M393.37,-292.87C389.69,-282.01 385.91,-269.05 384,-257 376.5,-209.64 378.03,-153.6 379.93,-120.95"/>
<polygon fill="grey" stroke="grey" stroke-width="2" points="383.43,-121.03 380.58,-110.82 376.45,-120.58 383.43,-121.03"/>
</g>
<!-- 13&#45;&gt;12 -->
<g id="edge17" class="edge">
<title>13&#45;&gt;12</title>
<path fill="none" stroke="grey" stroke-width="2" d="M408.47,-292.89C410.25,-284.75 412.22,-275.68 414.03,-267.38"/>
<polygon fill="grey" stroke="grey" stroke-width="2" points="417.5,-267.93 416.21,-257.41 410.66,-266.44 417.5,-267.93"/>
</g>
<!-- 14 -->
<g id="node15" class="node">
<title>14</title>
<path fill="none" stroke="#d8ac56" stroke-width="2" stroke-dasharray="5,2" d="M526,-110.5C526,-110.5 458,-110.5 458,-110.5 452,-110.5 446,-104.5 446,-98.5 446,-98.5 446,-86.5 446,-86.5 446,-80.5 452,-74.5 458,-74.5 458,-74.5 526,-74.5 526,-74.5 532,-74.5 538,-80.5 538,-86.5 538,-86.5 538,-98.5 538,-98.5 538,-104.5 532,-110.5 526,-110.5"/>
<text text-anchor="middle" x="492" y="-90" font-family="sans" font-size="10.00">annotate_reads</text>
</g>
<!-- 14&#45;&gt;0 -->
<g id="edge5" class="edge">
<title>14&#45;&gt;0</title>
<path fill="none" stroke="grey" stroke-width="2" d="M445.82,-75.01C442.84,-73.99 439.88,-72.97 437,-72 393.21,-57.21 342.57,-41.09 309.06,-30.55"/>
<polygon fill="grey" stroke="grey" stroke-width="2" points="309.82,-27.13 299.24,-27.47 307.73,-33.81 309.82,-27.13"/>
</g>
<!-- 15 -->
<g id="node16" class="node">
<title>15</title>
<path fill="none" stroke="#56a9d8" stroke-width="2" stroke-dasharray="5,2" d="M561,-185C561,-185 531,-185 531,-185 525,-185 519,-179 519,-173 519,-173 519,-161 519,-161 519,-155 525,-149 531,-149 531,-149 561,-149 561,-149 567,-149 573,-155 573,-161 573,-161 573,-173 573,-173 573,-179 567,-185 561,-185"/>
<text text-anchor="middle" x="546" y="-164.5" font-family="sans" font-size="10.00">convert</text>
</g>
<!-- 15&#45;&gt;14 -->
<g id="edge18" class="edge">
<title>15&#45;&gt;14</title>
<path fill="none" stroke="grey" stroke-width="2" d="M533.2,-148.82C526.54,-139.88 518.28,-128.78 510.9,-118.87"/>
<polygon fill="grey" stroke="grey" stroke-width="2" points="513.49,-116.49 504.71,-110.56 507.87,-120.67 513.49,-116.49"/>
</g>
<!-- 16 -->
<g id="node17" class="node">
<title>16</title>
<path fill="none" stroke="#59d856" stroke-width="2" stroke-dasharray="5,2" d="M561,-257C561,-257 531,-257 531,-257 525,-257 519,-251 519,-245 519,-245 519,-233 519,-233 519,-227 525,-221 531,-221 531,-221 561,-221 561,-221 567,-221 573,-227 573,-233 573,-233 573,-245 573,-245 573,-251 567,-257 561,-257"/>
<text text-anchor="middle" x="546" y="-236.5" font-family="sans" font-size="10.00">art</text>
</g>
<!-- 16&#45;&gt;15 -->
<g id="edge20" class="edge">
<title>16&#45;&gt;15</title>
<path fill="none" stroke="grey" stroke-width="2" d="M546,-220.7C546,-212.98 546,-203.71 546,-195.11"/>
<polygon fill="grey" stroke="grey" stroke-width="2" points="549.5,-195.1 546,-185.1 542.5,-195.1 549.5,-195.1"/>
</g>
<!-- 17 -->
<g id="node18" class="node">
<title>17</title>
<path fill="none" stroke="#afd856" stroke-width="2" stroke-dasharray="5,2" d="M594.5,-345C594.5,-345 495.5,-345 495.5,-345 489.5,-345 483.5,-339 483.5,-333 483.5,-333 483.5,-305 483.5,-305 483.5,-299 489.5,-293 495.5,-293 495.5,-293 594.5,-293 594.5,-293 600.5,-293 606.5,-299 606.5,-305 606.5,-305 606.5,-333 606.5,-333 606.5,-339 600.5,-345 594.5,-345"/>
<text text-anchor="middle" x="545" y="-333" font-family="sans" font-size="10.00">simulate_integrations</text>
<text text-anchor="middle" x="545" y="-322" font-family="sans" font-size="10.00">exp: test</text>
<text text-anchor="middle" x="545" y="-311" font-family="sans" font-size="10.00">outpath: test/out</text>
<text text-anchor="middle" x="545" y="-300" font-family="sans" font-size="10.00">samp: cond1.rep1</text>
</g>
<!-- 17&#45;&gt;14 -->
<g id="edge19" class="edge">
<title>17&#45;&gt;14</title>
<path fill="none" stroke="grey" stroke-width="2" d="M527.53,-292.98C520.96,-282.35 514.09,-269.54 510,-257 494.96,-210.9 491.96,-154.02 491.63,-120.95"/>
<polygon fill="grey" stroke="grey" stroke-width="2" points="495.13,-120.68 491.61,-110.69 488.13,-120.7 495.13,-120.68"/>
</g>
<!-- 17&#45;&gt;16 -->
<g id="edge21" class="edge">
<title>17&#45;&gt;16</title>
<path fill="none" stroke="grey" stroke-width="2" d="M545.32,-292.89C545.43,-284.84 545.54,-275.88 545.65,-267.66"/>
<polygon fill="grey" stroke="grey" stroke-width="2" points="549.15,-267.45 545.78,-257.41 542.15,-267.36 549.15,-267.45"/>
</g>
</g>
</svg>
